<svg width="187" height="44" viewBox="0 0 187 44" fill="none" xmlns="http://www.w3.org/2000/svg">
<rect width="187" height="44" rx="10" fill="url(#paint0_linear_2_5)"/>
<path d="M30.4375 18.4531C30.1211 18.2773 29.8281 18.1309 29.5586 18.0137C29.2949 17.8906 29.0371 17.791 28.7852 17.7148C28.5332 17.6328 28.2812 17.5742 28.0293 17.5391C27.7773 17.5039 27.5107 17.4863 27.2295 17.4863C26.8779 17.4863 26.5557 17.5391 26.2627 17.6445C25.9756 17.75 25.7266 17.8906 25.5156 18.0664C25.3047 18.2422 25.1406 18.4443 25.0234 18.6729C24.9121 18.9014 24.8564 19.1357 24.8564 19.376C24.8564 19.6162 24.8887 19.8359 24.9531 20.0352C25.0234 20.2285 25.1611 20.4131 25.3662 20.5889C25.5713 20.7588 25.8643 20.9287 26.2451 21.0986C26.626 21.2627 27.1299 21.4355 27.7568 21.6172C28.3369 21.7871 28.8496 21.9863 29.2949 22.2148C29.7461 22.4375 30.124 22.6953 30.4287 22.9883C30.7334 23.2812 30.9648 23.6152 31.123 23.9902C31.2812 24.3652 31.3604 24.79 31.3604 25.2646C31.3604 25.8564 31.2432 26.3955 31.0088 26.8818C30.7803 27.3623 30.4639 27.7783 30.0596 28.1299C29.6611 28.4756 29.1953 28.7451 28.6621 28.9385C28.1289 29.126 27.5635 29.2197 26.9658 29.2197C26.5439 29.2197 26.1309 29.1904 25.7266 29.1318C25.3281 29.0732 24.9502 28.9912 24.5928 28.8857C24.2412 28.7803 23.916 28.6572 23.6172 28.5166C23.3184 28.3701 23.0576 28.209 22.835 28.0332L23.2305 26.2314C23.8164 26.7412 24.4199 27.1104 25.041 27.3389C25.668 27.5674 26.3096 27.6816 26.9658 27.6816C27.3174 27.6816 27.6572 27.6318 27.9854 27.5322C28.3135 27.4326 28.6035 27.2891 28.8555 27.1016C29.1074 26.9082 29.3096 26.6738 29.4619 26.3984C29.6143 26.1172 29.6904 25.7979 29.6904 25.4404C29.6904 25.2119 29.6523 24.9951 29.5762 24.79C29.5059 24.5791 29.3594 24.374 29.1367 24.1748C28.9141 23.9756 28.5947 23.7793 28.1787 23.5859C27.7627 23.3867 27.2119 23.1846 26.5264 22.9795C25.8408 22.7744 25.2812 22.5488 24.8477 22.3027C24.4141 22.0566 24.0742 21.79 23.8281 21.5029C23.582 21.21 23.4121 20.8994 23.3184 20.5713C23.2305 20.2373 23.1865 19.8828 23.1865 19.5078C23.1865 19.1328 23.2627 18.7373 23.415 18.3213C23.5732 17.9053 23.8193 17.5215 24.1533 17.1699C24.4873 16.8184 24.915 16.5283 25.4365 16.2998C25.958 16.0654 26.585 15.9482 27.3174 15.9482C27.6572 15.9482 27.9736 15.9629 28.2666 15.9922C28.5654 16.0215 28.8525 16.0684 29.1279 16.1328C29.4092 16.1973 29.6846 16.2793 29.9541 16.3789C30.2236 16.4785 30.502 16.5986 30.7891 16.7393L30.4375 18.4531ZM39.4111 21.4238C39.3408 21.4062 39.2617 21.3887 39.1738 21.3711C39.0859 21.3535 38.9805 21.3359 38.8574 21.3184C38.7402 21.3008 38.5996 21.2891 38.4355 21.2832C38.2773 21.2715 38.0898 21.2656 37.873 21.2656C37.2988 21.2656 36.8184 21.3828 36.4316 21.6172C36.0508 21.8457 35.7461 22.1533 35.5176 22.54C35.2891 22.9209 35.125 23.3604 35.0254 23.8584C34.9316 24.3564 34.8848 24.8691 34.8848 25.3965C34.8848 25.7363 34.917 26.0498 34.9814 26.3369C35.0518 26.6182 35.1455 26.8643 35.2627 27.0752C35.3799 27.2803 35.5146 27.4414 35.667 27.5586C35.8193 27.6699 35.9834 27.7256 36.1592 27.7256C36.417 27.7256 36.6748 27.626 36.9326 27.4268C37.1963 27.2275 37.4482 26.9727 37.6885 26.6621C37.9287 26.3457 38.1543 25.9941 38.3652 25.6074C38.5762 25.2148 38.7578 24.8281 38.9102 24.4473C39.0684 24.0605 39.1914 23.6973 39.2793 23.3574C39.3672 23.0176 39.4111 22.7451 39.4111 22.54V21.4238ZM40.0703 29C40.0059 28.8594 39.9473 28.666 39.8945 28.4199C39.8477 28.1738 39.8066 27.9131 39.7715 27.6377C39.7422 27.3564 39.7188 27.0781 39.7012 26.8027C39.6836 26.5273 39.6748 26.293 39.6748 26.0996V25.3965C39.499 25.8535 39.2881 26.3105 39.042 26.7676C38.8018 27.2188 38.5234 27.626 38.207 27.9893C37.8965 28.3525 37.5479 28.6484 37.1611 28.877C36.7744 29.1055 36.3525 29.2197 35.8955 29.2197C35.5264 29.2197 35.1807 29.1377 34.8584 28.9736C34.5361 28.8096 34.2549 28.5664 34.0146 28.2441C33.7803 27.9219 33.5957 27.5234 33.4609 27.0488C33.3262 26.5684 33.2588 26.0176 33.2588 25.3965C33.2588 24.6992 33.3525 24.0195 33.54 23.3574C33.7275 22.6895 34.0146 22.0977 34.4014 21.582C34.7881 21.0605 35.2803 20.6445 35.8779 20.334C36.4756 20.0176 37.1846 19.8594 38.0049 19.8594C38.5732 19.8594 39.1094 19.8975 39.6133 19.9736C40.1172 20.0439 40.5918 20.1377 41.0371 20.2549V24.3418C41.0371 25.4492 41.0898 26.3809 41.1953 27.1367C41.3008 27.8867 41.4385 28.5078 41.6084 29H40.0703ZM51.6719 20.0352C51.5488 20.2871 51.4199 20.5596 51.2852 20.8525C51.1562 21.1455 51.0303 21.4326 50.9072 21.7139C50.79 21.9951 50.6787 22.2617 50.5732 22.5137C50.4678 22.7656 50.3799 22.9795 50.3096 23.1553C50.251 23.2959 50.1719 23.4893 50.0723 23.7354C49.9785 23.9756 49.8701 24.248 49.7471 24.5527C49.6299 24.8516 49.5039 25.1709 49.3691 25.5107C49.2344 25.8447 49.1025 26.1758 48.9736 26.5039C48.6631 27.2773 48.332 28.1094 47.9805 29H46.3105C45.9707 28.1504 45.6514 27.3477 45.3525 26.5918C45.2236 26.2695 45.0918 25.9414 44.957 25.6074C44.8223 25.2734 44.6934 24.9541 44.5703 24.6494C44.4531 24.3389 44.3418 24.0547 44.2363 23.7969C44.1367 23.5391 44.0518 23.3252 43.9814 23.1553C43.9111 22.9795 43.8232 22.7656 43.7178 22.5137C43.6123 22.2559 43.498 21.9863 43.375 21.7051C43.252 21.4238 43.126 21.1396 42.9971 20.8525C42.8682 20.5596 42.7422 20.2871 42.6191 20.0352H44.4648L47.1455 27.2422L49.8262 20.0352H51.6719ZM58.9229 21.4238C58.8525 21.4062 58.7734 21.3887 58.6855 21.3711C58.5977 21.3535 58.4922 21.3359 58.3691 21.3184C58.252 21.3008 58.1113 21.2891 57.9473 21.2832C57.7891 21.2715 57.6016 21.2656 57.3848 21.2656C56.8105 21.2656 56.3301 21.3828 55.9434 21.6172C55.5625 21.8457 55.2578 22.1533 55.0293 22.54C54.8008 22.9209 54.6367 23.3604 54.5371 23.8584C54.4434 24.3564 54.3965 24.8691 54.3965 25.3965C54.3965 25.7363 54.4287 26.0498 54.4932 26.3369C54.5635 26.6182 54.6572 26.8643 54.7744 27.0752C54.8916 27.2803 55.0264 27.4414 55.1787 27.5586C55.3311 27.6699 55.4951 27.7256 55.6709 27.7256C55.9287 27.7256 56.1865 27.626 56.4443 27.4268C56.708 27.2275 56.96 26.9727 57.2002 26.6621C57.4404 26.3457 57.666 25.9941 57.877 25.6074C58.0879 25.2148 58.2695 24.8281 58.4219 24.4473C58.5801 24.0605 58.7031 23.6973 58.791 23.3574C58.8789 23.0176 58.9229 22.7451 58.9229 22.54V21.4238ZM59.582 29C59.5176 28.8594 59.459 28.666 59.4062 28.4199C59.3594 28.1738 59.3184 27.9131 59.2832 27.6377C59.2539 27.3564 59.2305 27.0781 59.2129 26.8027C59.1953 26.5273 59.1865 26.293 59.1865 26.0996V25.3965C59.0107 25.8535 58.7998 26.3105 58.5537 26.7676C58.3135 27.2188 58.0352 27.626 57.7188 27.9893C57.4082 28.3525 57.0596 28.6484 56.6729 28.877C56.2861 29.1055 55.8643 29.2197 55.4072 29.2197C55.0381 29.2197 54.6924 29.1377 54.3701 28.9736C54.0479 28.8096 53.7666 28.5664 53.5264 28.2441C53.292 27.9219 53.1074 27.5234 52.9727 27.0488C52.8379 26.5684 52.7705 26.0176 52.7705 25.3965C52.7705 24.6992 52.8643 24.0195 53.0518 23.3574C53.2393 22.6895 53.5264 22.0977 53.9131 21.582C54.2998 21.0605 54.792 20.6445 55.3896 20.334C55.9873 20.0176 56.6963 19.8594 57.5166 19.8594C58.085 19.8594 58.6211 19.8975 59.125 19.9736C59.6289 20.0439 60.1035 20.1377 60.5488 20.2549V24.3418C60.5488 25.4492 60.6016 26.3809 60.707 27.1367C60.8125 27.8867 60.9502 28.5078 61.1201 29H59.582ZM69.5576 29V24.166C69.5576 23.6152 69.5195 23.1611 69.4434 22.8037C69.373 22.4463 69.2646 22.165 69.1182 21.96C68.9775 21.749 68.7959 21.6025 68.5732 21.5205C68.3564 21.4385 68.0986 21.3975 67.7998 21.3975C67.4834 21.3975 67.1729 21.4736 66.8682 21.626C66.5693 21.7725 66.2939 21.9658 66.042 22.2061C65.79 22.4404 65.5674 22.707 65.374 23.0059C65.1807 23.3047 65.0371 23.6035 64.9434 23.9023V29H63.3174V23.5947C63.3174 22.7275 63.2676 21.9951 63.168 21.3975C63.0742 20.7939 62.9775 20.3398 62.8779 20.0352H64.46C64.4951 20.1289 64.5303 20.252 64.5654 20.4043C64.6006 20.5508 64.6328 20.7061 64.6621 20.8701C64.6914 21.0342 64.7178 21.1953 64.7412 21.3535L64.8115 21.749C65.3682 21.0811 65.9307 20.6006 66.499 20.3076C67.0674 20.0088 67.6621 19.8594 68.2832 19.8594C69.2207 19.8594 69.9385 20.167 70.4365 20.7822C70.9346 21.3916 71.1836 22.2998 71.1836 23.5068V29H69.5576ZM79.9814 29V24.166C79.9814 23.6152 79.9434 23.1611 79.8672 22.8037C79.7969 22.4463 79.6885 22.165 79.542 21.96C79.4014 21.749 79.2197 21.6025 78.9971 21.5205C78.7803 21.4385 78.5225 21.3975 78.2236 21.3975C77.9072 21.3975 77.5967 21.4736 77.292 21.626C76.9932 21.7725 76.7178 21.9658 76.4658 22.2061C76.2139 22.4404 75.9912 22.707 75.7979 23.0059C75.6045 23.3047 75.4609 23.6035 75.3672 23.9023V29H73.7412V23.5947C73.7412 22.7275 73.6914 21.9951 73.5918 21.3975C73.498 20.7939 73.4014 20.3398 73.3018 20.0352H74.8838C74.9189 20.1289 74.9541 20.252 74.9893 20.4043C75.0244 20.5508 75.0566 20.7061 75.0859 20.8701C75.1152 21.0342 75.1416 21.1953 75.165 21.3535L75.2354 21.749C75.792 21.0811 76.3545 20.6006 76.9229 20.3076C77.4912 20.0088 78.0859 19.8594 78.707 19.8594C79.6445 19.8594 80.3623 20.167 80.8604 20.7822C81.3584 21.3916 81.6074 22.2998 81.6074 23.5068V29H79.9814ZM89.8779 21.4238C89.8076 21.4062 89.7285 21.3887 89.6406 21.3711C89.5527 21.3535 89.4473 21.3359 89.3242 21.3184C89.207 21.3008 89.0664 21.2891 88.9023 21.2832C88.7441 21.2715 88.5566 21.2656 88.3398 21.2656C87.7656 21.2656 87.2852 21.3828 86.8984 21.6172C86.5176 21.8457 86.2129 22.1533 85.9844 22.54C85.7559 22.9209 85.5918 23.3604 85.4922 23.8584C85.3984 24.3564 85.3516 24.8691 85.3516 25.3965C85.3516 25.7363 85.3838 26.0498 85.4482 26.3369C85.5186 26.6182 85.6123 26.8643 85.7295 27.0752C85.8467 27.2803 85.9814 27.4414 86.1338 27.5586C86.2861 27.6699 86.4502 27.7256 86.626 27.7256C86.8838 27.7256 87.1416 27.626 87.3994 27.4268C87.6631 27.2275 87.915 26.9727 88.1553 26.6621C88.3955 26.3457 88.6211 25.9941 88.832 25.6074C89.043 25.2148 89.2246 24.8281 89.377 24.4473C89.5352 24.0605 89.6582 23.6973 89.7461 23.3574C89.834 23.0176 89.8779 22.7451 89.8779 22.54V21.4238ZM90.5371 29C90.4727 28.8594 90.4141 28.666 90.3613 28.4199C90.3145 28.1738 90.2734 27.9131 90.2383 27.6377C90.209 27.3564 90.1855 27.0781 90.168 26.8027C90.1504 26.5273 90.1416 26.293 90.1416 26.0996V25.3965C89.9658 25.8535 89.7549 26.3105 89.5088 26.7676C89.2686 27.2188 88.9902 27.626 88.6738 27.9893C88.3633 28.3525 88.0146 28.6484 87.6279 28.877C87.2412 29.1055 86.8193 29.2197 86.3623 29.2197C85.9932 29.2197 85.6475 29.1377 85.3252 28.9736C85.0029 28.8096 84.7217 28.5664 84.4814 28.2441C84.2471 27.9219 84.0625 27.5234 83.9277 27.0488C83.793 26.5684 83.7256 26.0176 83.7256 25.3965C83.7256 24.6992 83.8193 24.0195 84.0068 23.3574C84.1943 22.6895 84.4814 22.0977 84.8682 21.582C85.2549 21.0605 85.7471 20.6445 86.3447 20.334C86.9424 20.0176 87.6514 19.8594 88.4717 19.8594C89.04 19.8594 89.5762 19.8975 90.0801 19.9736C90.584 20.0439 91.0586 20.1377 91.5039 20.2549V24.3418C91.5039 25.4492 91.5566 26.3809 91.6621 27.1367C91.7676 27.8867 91.9053 28.5078 92.0752 29H90.5371ZM100.425 29V24.166C100.425 23.6152 100.387 23.1611 100.311 22.8037C100.24 22.4463 100.132 22.165 99.9854 21.96C99.8389 21.749 99.6543 21.6025 99.4316 21.5205C99.2148 21.4385 98.96 21.3975 98.667 21.3975C98.3506 21.3975 98.04 21.4736 97.7354 21.626C97.4365 21.7725 97.1611 21.9658 96.9092 22.2061C96.6572 22.4404 96.4346 22.707 96.2412 23.0059C96.0479 23.3047 95.9043 23.6035 95.8105 23.9023V29H94.1846V19.0684C94.1846 18.1191 94.1787 17.29 94.167 16.5811C94.1553 15.8662 94.1172 15.3184 94.0527 14.9375H95.8105V21.7051C96.2441 21.0898 96.7539 20.6299 97.3398 20.3252C97.9258 20.0146 98.5293 19.8594 99.1504 19.8594C100.088 19.8594 100.806 20.167 101.304 20.7822C101.802 21.3916 102.051 22.2998 102.051 23.5068V29H100.425ZM112.079 16.168L115.858 27.1982L119.682 16.168H121.615C121.686 18.2598 121.756 20.1816 121.826 21.9336C121.844 22.4316 121.864 22.9326 121.888 23.4365C121.911 23.9346 121.935 24.4238 121.958 24.9043C121.981 25.3789 122.005 25.833 122.028 26.2666C122.052 26.6943 122.072 27.0869 122.09 27.4443C122.113 27.8018 122.137 28.1152 122.16 28.3848C122.184 28.6484 122.207 28.8535 122.23 29H120.604L120.358 18.4707L116.737 29H115.023L111.385 18.4971L111.112 29H109.486C109.504 28.8535 109.524 28.6484 109.548 28.3848C109.571 28.1152 109.592 27.8018 109.609 27.4443C109.633 27.0869 109.656 26.6943 109.68 26.2666C109.703 25.833 109.727 25.3789 109.75 24.9043C109.773 24.4238 109.794 23.9346 109.812 23.4365C109.835 22.9326 109.858 22.4316 109.882 21.9336C109.952 20.1816 110.025 18.2598 110.102 16.168H112.079ZM130.94 21.4238C130.87 21.4062 130.791 21.3887 130.703 21.3711C130.615 21.3535 130.51 21.3359 130.387 21.3184C130.27 21.3008 130.129 21.2891 129.965 21.2832C129.807 21.2715 129.619 21.2656 129.402 21.2656C128.828 21.2656 128.348 21.3828 127.961 21.6172C127.58 21.8457 127.275 22.1533 127.047 22.54C126.818 22.9209 126.654 23.3604 126.555 23.8584C126.461 24.3564 126.414 24.8691 126.414 25.3965C126.414 25.7363 126.446 26.0498 126.511 26.3369C126.581 26.6182 126.675 26.8643 126.792 27.0752C126.909 27.2803 127.044 27.4414 127.196 27.5586C127.349 27.6699 127.513 27.7256 127.688 27.7256C127.946 27.7256 128.204 27.626 128.462 27.4268C128.726 27.2275 128.978 26.9727 129.218 26.6621C129.458 26.3457 129.684 25.9941 129.895 25.6074C130.105 25.2148 130.287 24.8281 130.439 24.4473C130.598 24.0605 130.721 23.6973 130.809 23.3574C130.896 23.0176 130.94 22.7451 130.94 22.54V21.4238ZM131.6 29C131.535 28.8594 131.477 28.666 131.424 28.4199C131.377 28.1738 131.336 27.9131 131.301 27.6377C131.271 27.3564 131.248 27.0781 131.23 26.8027C131.213 26.5273 131.204 26.293 131.204 26.0996V25.3965C131.028 25.8535 130.817 26.3105 130.571 26.7676C130.331 27.2188 130.053 27.626 129.736 27.9893C129.426 28.3525 129.077 28.6484 128.69 28.877C128.304 29.1055 127.882 29.2197 127.425 29.2197C127.056 29.2197 126.71 29.1377 126.388 28.9736C126.065 28.8096 125.784 28.5664 125.544 28.2441C125.31 27.9219 125.125 27.5234 124.99 27.0488C124.855 26.5684 124.788 26.0176 124.788 25.3965C124.788 24.6992 124.882 24.0195 125.069 23.3574C125.257 22.6895 125.544 22.0977 125.931 21.582C126.317 21.0605 126.81 20.6445 127.407 20.334C128.005 20.0176 128.714 19.8594 129.534 19.8594C130.103 19.8594 130.639 19.8975 131.143 19.9736C131.646 20.0439 132.121 20.1377 132.566 20.2549V24.3418C132.566 25.4492 132.619 26.3809 132.725 27.1367C132.83 27.8867 132.968 28.5078 133.138 29H131.6ZM135.335 17.1787C135.335 17.0146 135.361 16.8623 135.414 16.7217C135.467 16.5752 135.54 16.4492 135.634 16.3438C135.733 16.2324 135.851 16.1475 135.985 16.0889C136.12 16.0244 136.27 15.9922 136.434 15.9922C136.598 15.9922 136.75 16.0244 136.891 16.0889C137.031 16.1475 137.151 16.2324 137.251 16.3438C137.351 16.4492 137.43 16.5752 137.488 16.7217C137.547 16.8623 137.576 17.0146 137.576 17.1787C137.576 17.3428 137.547 17.498 137.488 17.6445C137.43 17.7852 137.351 17.9111 137.251 18.0225C137.151 18.1279 137.031 18.2129 136.891 18.2773C136.75 18.3359 136.598 18.3652 136.434 18.3652C136.27 18.3652 136.12 18.3359 135.985 18.2773C135.851 18.2129 135.733 18.1279 135.634 18.0225C135.54 17.9111 135.467 17.7852 135.414 17.6445C135.361 17.498 135.335 17.3428 135.335 17.1787ZM137.269 24.8252C137.269 25.1064 137.271 25.4404 137.277 25.8271C137.289 26.208 137.301 26.5947 137.312 26.9873C137.33 27.3799 137.348 27.7549 137.365 28.1123C137.389 28.4697 137.415 28.7656 137.444 29H135.643V24.3418C135.643 23.9141 135.64 23.4922 135.634 23.0762C135.634 22.6602 135.628 22.2676 135.616 21.8984C135.61 21.5234 135.599 21.1777 135.581 20.8613C135.563 20.5391 135.54 20.2637 135.511 20.0352H137.269V24.8252ZM141.408 24.7373C141.426 25.2529 141.505 25.7012 141.646 26.082C141.792 26.4629 141.988 26.7793 142.234 27.0312C142.486 27.2773 142.779 27.4619 143.113 27.585C143.453 27.708 143.822 27.7695 144.221 27.7695C144.789 27.7695 145.346 27.7051 145.891 27.5762C146.436 27.4473 146.978 27.2188 147.517 26.8906L147.692 28.3408C147.382 28.499 147.077 28.6338 146.778 28.7451C146.479 28.8564 146.181 28.9473 145.882 29.0176C145.583 29.0879 145.278 29.1377 144.968 29.167C144.663 29.2021 144.341 29.2197 144.001 29.2197C143.438 29.2197 142.902 29.123 142.393 28.9297C141.883 28.7305 141.435 28.4404 141.048 28.0596C140.661 27.6729 140.354 27.1953 140.125 26.627C139.896 26.0586 139.782 25.3994 139.782 24.6494C139.782 23.9229 139.879 23.2666 140.072 22.6807C140.271 22.0889 140.553 21.585 140.916 21.1689C141.279 20.7471 141.722 20.4248 142.243 20.2021C142.765 19.9736 143.351 19.8594 144.001 19.8594C144.481 19.8594 144.906 19.918 145.275 20.0352C145.645 20.1465 145.964 20.3047 146.233 20.5098C146.503 20.709 146.729 20.9434 146.91 21.2129C147.092 21.4824 147.235 21.7725 147.341 22.083C147.452 22.3936 147.531 22.7188 147.578 23.0586C147.625 23.3926 147.648 23.7236 147.648 24.0518V24.3945C147.648 24.541 147.646 24.6553 147.64 24.7373H141.408ZM143.869 21.1777C143.225 21.1777 142.697 21.3682 142.287 21.749C141.877 22.124 141.607 22.71 141.479 23.5068H146.066C146.066 23.1318 146.011 22.8008 145.899 22.5137C145.794 22.2207 145.642 21.9746 145.442 21.7754C145.249 21.5762 145.018 21.4268 144.748 21.3271C144.479 21.2275 144.186 21.1777 143.869 21.1777ZM149.942 29V23.5947C149.942 22.7275 149.893 21.9951 149.793 21.3975C149.699 20.7939 149.603 20.3398 149.503 20.0352H151.085C151.12 20.1289 151.155 20.252 151.19 20.4043C151.226 20.5508 151.258 20.7061 151.287 20.8701C151.316 21.0342 151.343 21.1953 151.366 21.3535L151.437 21.749C151.647 21.4443 151.876 21.1748 152.122 20.9404C152.374 20.7061 152.626 20.5098 152.878 20.3516C153.136 20.1875 153.385 20.0645 153.625 19.9824C153.871 19.9004 154.094 19.8594 154.293 19.8594C154.662 19.8594 154.973 19.9414 155.225 20.1055C155.482 20.2637 155.69 20.4805 155.849 20.7559C156.013 21.0254 156.13 21.3389 156.2 21.6963C156.276 22.0479 156.314 22.417 156.314 22.8037L154.908 23.1113C154.908 22.8945 154.888 22.6865 154.847 22.4873C154.806 22.2822 154.744 22.1035 154.662 21.9512C154.58 21.793 154.475 21.6699 154.346 21.582C154.223 21.4883 154.073 21.4414 153.897 21.4414C153.71 21.4414 153.502 21.5146 153.273 21.6611C153.045 21.8018 152.819 21.9893 152.597 22.2236C152.38 22.458 152.178 22.7217 151.99 23.0146C151.803 23.3076 151.662 23.6035 151.568 23.9023V29H149.942ZM163.434 22.1006C163.287 22.0127 163.12 21.9219 162.933 21.8281C162.745 21.7285 162.54 21.6377 162.317 21.5557C162.101 21.4736 161.866 21.4062 161.614 21.3535C161.368 21.2949 161.11 21.2656 160.841 21.2656C160.519 21.2656 160.246 21.3008 160.023 21.3711C159.807 21.4414 159.631 21.5322 159.496 21.6436C159.367 21.749 159.273 21.8721 159.215 22.0127C159.156 22.1475 159.127 22.2793 159.127 22.4082C159.127 22.5605 159.15 22.6953 159.197 22.8125C159.244 22.9297 159.341 23.0381 159.487 23.1377C159.64 23.2373 159.854 23.334 160.129 23.4277C160.404 23.5215 160.773 23.6211 161.236 23.7266C161.635 23.8145 162.01 23.9287 162.361 24.0693C162.713 24.2041 163.021 24.377 163.284 24.5879C163.548 24.7988 163.756 25.0537 163.908 25.3525C164.061 25.6455 164.137 25.9971 164.137 26.4072C164.137 26.8057 164.049 27.1748 163.873 27.5146C163.697 27.8545 163.457 28.1533 163.152 28.4111C162.848 28.6631 162.49 28.8594 162.08 29C161.67 29.1465 161.228 29.2197 160.753 29.2197C160.396 29.2197 160.05 29.1934 159.716 29.1406C159.388 29.0879 159.077 29.0146 158.784 28.9209C158.497 28.8271 158.233 28.7188 157.993 28.5957C157.753 28.4727 157.545 28.3438 157.369 28.209L157.809 26.627C158.008 26.8027 158.23 26.9639 158.477 27.1104C158.729 27.2568 158.986 27.3828 159.25 27.4883C159.514 27.5938 159.777 27.6758 160.041 27.7344C160.311 27.7871 160.562 27.8135 160.797 27.8135C161.055 27.8135 161.289 27.7812 161.5 27.7168C161.717 27.6465 161.901 27.5586 162.054 27.4531C162.212 27.3418 162.335 27.2158 162.423 27.0752C162.511 26.9287 162.555 26.7793 162.555 26.627C162.555 26.4629 162.52 26.3105 162.449 26.1699C162.385 26.0234 162.262 25.8857 162.08 25.7568C161.904 25.6221 161.658 25.4932 161.342 25.3701C161.031 25.2471 160.63 25.124 160.138 25.001C159.604 24.8721 159.168 24.7197 158.828 24.5439C158.494 24.3682 158.23 24.1748 158.037 23.9639C157.85 23.7529 157.721 23.5244 157.65 23.2783C157.58 23.0322 157.545 22.7715 157.545 22.4961C157.545 22.3613 157.565 22.2031 157.606 22.0215C157.653 21.8398 157.727 21.6523 157.826 21.459C157.932 21.2598 158.066 21.0664 158.23 20.8789C158.4 20.6855 158.611 20.5156 158.863 20.3691C159.115 20.2168 159.411 20.0938 159.751 20C160.091 19.9062 160.483 19.8594 160.929 19.8594C161.245 19.8594 161.541 19.8799 161.816 19.9209C162.098 19.9619 162.353 20.0176 162.581 20.0879C162.815 20.1523 163.029 20.2285 163.223 20.3164C163.416 20.3984 163.589 20.4805 163.741 20.5625L163.434 22.1006Z" fill="#F6F0F0"/>
<defs>
<linearGradient id="paint0_linear_2_5" x1="-12" y1="2.27343e-08" x2="178" y2="39.5" gradientUnits="userSpaceOnUse">
<stop stop-color="#259874"/>
<stop offset="0.422923" stop-color="#216268"/>
<stop offset="1" stop-color="#411D5D"/>
</linearGradient>
</defs>
</svg>
