<svg width="104" height="71" viewBox="0 0 104 71" fill="none" xmlns="http://www.w3.org/2000/svg">
<rect x="0.5" y="0.5" width="103" height="70" rx="9.5" stroke="#EBEBE4"/>
<path d="M29.76 55.864C27.744 55.864 25.968 55.512 24.432 54.808C22.896 54.104 21.712 53.128 20.88 51.88C20.048 50.6 19.632 49.128 19.632 47.464C19.632 46.056 19.92 44.776 20.496 43.624C21.104 42.472 21.904 41.56 22.896 40.888C23.92 40.216 25.04 39.88 26.256 39.88C27.376 39.88 28.32 40.168 29.088 40.744C29.856 41.288 30.336 42.056 30.528 43.048C28.864 43.048 27.536 43.496 26.544 44.392C25.552 45.256 25.056 46.44 25.056 47.944C25.056 49.32 25.472 50.424 26.304 51.256C27.136 52.088 28.24 52.504 29.616 52.504C31.312 52.504 32.704 51.944 33.792 50.824C34.912 49.672 35.472 48.232 35.472 46.504C35.472 45 35.056 43.576 34.224 42.232C33.392 40.888 32.144 39.256 30.48 37.336C28.752 35.352 27.44 33.656 26.544 32.248C25.68 30.808 25.248 29.24 25.248 27.544C25.248 25.88 25.712 24.392 26.64 23.08C27.568 21.736 28.848 20.68 30.48 19.912C32.112 19.144 33.952 18.76 36 18.76C38.592 18.76 40.656 19.368 42.192 20.584C43.76 21.8 44.544 23.432 44.544 25.48C44.544 26.824 44.208 27.912 43.536 28.744C42.864 29.576 41.984 29.992 40.896 29.992C39.68 29.992 38.704 29.496 37.968 28.504C38.576 28.056 39.056 27.464 39.408 26.728C39.76 25.992 39.936 25.224 39.936 24.424C39.936 23.4 39.632 22.584 39.024 21.976C38.416 21.368 37.584 21.064 36.528 21.064C35.248 21.064 34.192 21.528 33.36 22.456C32.56 23.352 32.16 24.504 32.16 25.912C32.16 27.192 32.528 28.392 33.264 29.512C34 30.6 35.152 32.008 36.72 33.736C38 35.112 39.024 36.296 39.792 37.288C40.592 38.28 41.264 39.432 41.808 40.744C42.384 42.024 42.672 43.416 42.672 44.92C42.672 46.968 42.096 48.824 40.944 50.488C39.824 52.152 38.272 53.464 36.288 54.424C34.336 55.384 32.16 55.864 29.76 55.864ZM60.783 22.024C58.351 22.824 56.463 24.152 55.119 26.008C53.807 27.832 53.151 30.104 53.151 32.824C53.151 34.04 53.263 34.872 53.487 35.32C53.711 35.768 53.823 36.04 53.823 36.136C50.399 36.136 48.687 34.68 48.687 31.768C48.687 29.784 49.439 27.8 50.943 25.816C52.479 23.8 54.431 22.168 56.799 20.92C59.199 19.64 61.583 19 63.951 19C65.135 19 66.351 19.224 67.599 19.672L66.495 44.968L77.055 19.672H83.967L78.927 55H72.015L75.087 33.448L66.063 55H59.487L60.447 33.352L52.431 55H48.591L60.783 22.024Z" fill="#EBEBE4"/>
</svg>
