<svg width="187" height="44" viewBox="0 0 187 44" fill="none" xmlns="http://www.w3.org/2000/svg">
<rect x="0.5" y="0.5" width="186" height="43" rx="9.5" stroke="#EBEBE4"/>
<rect x="0.5" y="0.5" width="186" height="43" rx="9.5" stroke="#EBEBE4"/>
<path d="M28.9 29.36C28.06 29.36 27.32 29.2133 26.68 28.92C26.04 28.6267 25.5467 28.22 25.2 27.7C24.8533 27.1667 24.68 26.5533 24.68 25.86C24.68 25.2733 24.8 24.74 25.04 24.26C25.2933 23.78 25.6267 23.4 26.04 23.12C26.4667 22.84 26.9333 22.7 27.44 22.7C27.9067 22.7 28.3 22.82 28.62 23.06C28.94 23.2867 29.14 23.6067 29.22 24.02C28.5267 24.02 27.9733 24.2067 27.56 24.58C27.1467 24.94 26.94 25.4333 26.94 26.06C26.94 26.6333 27.1133 27.0933 27.46 27.44C27.8067 27.7867 28.2667 27.96 28.84 27.96C29.5467 27.96 30.1267 27.7267 30.58 27.26C31.0467 26.78 31.28 26.18 31.28 25.46C31.28 24.8333 31.1067 24.24 30.76 23.68C30.4133 23.12 29.8933 22.44 29.2 21.64C28.48 20.8133 27.9333 20.1067 27.56 19.52C27.2 18.92 27.02 18.2667 27.02 17.56C27.02 16.8667 27.2133 16.2467 27.6 15.7C27.9867 15.14 28.52 14.7 29.2 14.38C29.88 14.06 30.6467 13.9 31.5 13.9C32.58 13.9 33.44 14.1533 34.08 14.66C34.7333 15.1667 35.06 15.8467 35.06 16.7C35.06 17.26 34.92 17.7133 34.64 18.06C34.36 18.4067 33.9933 18.58 33.54 18.58C33.0333 18.58 32.6267 18.3733 32.32 17.96C32.5733 17.7733 32.7733 17.5267 32.92 17.22C33.0667 16.9133 33.14 16.5933 33.14 16.26C33.14 15.8333 33.0133 15.4933 32.76 15.24C32.5067 14.9867 32.16 14.86 31.72 14.86C31.1867 14.86 30.7467 15.0533 30.4 15.44C30.0667 15.8133 29.9 16.2933 29.9 16.88C29.9 17.4133 30.0533 17.9133 30.36 18.38C30.6667 18.8333 31.1467 19.42 31.8 20.14C32.3333 20.7133 32.76 21.2067 33.08 21.62C33.4133 22.0333 33.6933 22.5133 33.92 23.06C34.16 23.5933 34.28 24.1733 34.28 24.8C34.28 25.6533 34.04 26.4267 33.56 27.12C33.0933 27.8133 32.4467 28.36 31.62 28.76C30.8067 29.16 29.9 29.36 28.9 29.36ZM37.8063 29.12C37.0463 29.12 36.4129 28.86 35.9063 28.34C35.3996 27.82 35.1462 27.0067 35.1462 25.9C35.1462 24.9133 35.3396 23.88 35.7263 22.8C36.1263 21.7067 36.7129 20.7867 37.4863 20.04C38.2729 19.28 39.2063 18.9 40.2863 18.9C40.8329 18.9 41.2396 18.9933 41.5063 19.18C41.7729 19.3667 41.9063 19.6133 41.9063 19.92V20.06L42.1263 19H45.0063L43.5663 25.8C43.5129 26 43.4863 26.2133 43.4863 26.44C43.4863 27.0133 43.7596 27.3 44.3063 27.3C44.6796 27.3 44.9996 27.1267 45.2663 26.78C45.5463 26.4333 45.7663 25.98 45.9263 25.42H46.7663C46.2729 26.86 45.6596 27.84 44.9263 28.36C44.2063 28.8667 43.4796 29.12 42.7463 29.12C42.1863 29.12 41.7329 28.9667 41.3863 28.66C41.0529 28.34 40.8529 27.88 40.7863 27.28C40.3996 27.8267 39.9663 28.2733 39.4863 28.62C39.0196 28.9533 38.4596 29.12 37.8063 29.12ZM39.1063 27.18C39.4396 27.18 39.7663 27.0267 40.0863 26.72C40.4196 26.4 40.6463 25.9667 40.7663 25.42L41.7263 20.9C41.7263 20.7267 41.6596 20.56 41.5263 20.4C41.3929 20.2267 41.1863 20.14 40.9063 20.14C40.3729 20.14 39.8929 20.4533 39.4663 21.08C39.0396 21.6933 38.7063 22.44 38.4663 23.32C38.2263 24.1867 38.1063 24.9533 38.1063 25.62C38.1063 26.2867 38.1996 26.7133 38.3863 26.9C38.5863 27.0867 38.8263 27.18 39.1063 27.18ZM48.2136 29.12C47.4403 29.12 46.8336 28.9267 46.3936 28.54C45.9669 28.14 45.7536 27.5467 45.7536 26.76C45.7536 26.44 45.7869 26.12 45.8536 25.8L47.2936 19H50.1736L48.7336 25.8C48.6669 26.1333 48.6336 26.3733 48.6336 26.52C48.6336 26.96 48.8603 27.18 49.3136 27.18C49.9269 27.18 50.4936 26.7933 51.0136 26.02C51.5469 25.2467 51.9736 24.3267 52.2936 23.26C52.6136 22.1933 52.7736 21.2733 52.7736 20.5C52.7469 20.5667 52.6603 20.62 52.5136 20.66C52.3669 20.6867 52.2403 20.7 52.1336 20.7C51.9069 20.7 51.7269 20.5933 51.5936 20.38C51.4736 20.1667 51.4136 19.9333 51.4136 19.68C51.4136 19.36 51.5136 19.1 51.7136 18.9C51.9269 18.7 52.2403 18.6 52.6536 18.6C53.0936 18.6 53.4136 18.7667 53.6136 19.1C53.8136 19.42 53.9136 19.8333 53.9136 20.34C53.9136 21.54 53.7069 22.8267 53.2936 24.2C52.8803 25.56 52.2469 26.72 51.3936 27.68C50.5403 28.64 49.4803 29.12 48.2136 29.12ZM56.6148 29.12C55.8548 29.12 55.2215 28.86 54.7148 28.34C54.2082 27.82 53.9548 27.0067 53.9548 25.9C53.9548 24.9133 54.1482 23.88 54.5348 22.8C54.9348 21.7067 55.5215 20.7867 56.2948 20.04C57.0815 19.28 58.0148 18.9 59.0948 18.9C59.6415 18.9 60.0482 18.9933 60.3148 19.18C60.5815 19.3667 60.7148 19.6133 60.7148 19.92V20.06L60.9348 19H63.8148L62.3748 25.8C62.3215 26 62.2948 26.2133 62.2948 26.44C62.2948 27.0133 62.5682 27.3 63.1148 27.3C63.4882 27.3 63.8082 27.1267 64.0748 26.78C64.3548 26.4333 64.5748 25.98 64.7348 25.42H65.5748C65.0815 26.86 64.4682 27.84 63.7348 28.36C63.0148 28.8667 62.2882 29.12 61.5548 29.12C60.9948 29.12 60.5415 28.9667 60.1948 28.66C59.8615 28.34 59.6615 27.88 59.5948 27.28C59.2082 27.8267 58.7748 28.2733 58.2948 28.62C57.8282 28.9533 57.2682 29.12 56.6148 29.12ZM57.9148 27.18C58.2482 27.18 58.5748 27.0267 58.8948 26.72C59.2282 26.4 59.4548 25.9667 59.5748 25.42L60.5348 20.9C60.5348 20.7267 60.4682 20.56 60.3348 20.4C60.2015 20.2267 59.9948 20.14 59.7148 20.14C59.1815 20.14 58.7015 20.4533 58.2748 21.08C57.8482 21.6933 57.5148 22.44 57.2748 23.32C57.0348 24.1867 56.9148 24.9533 56.9148 25.62C56.9148 26.2867 57.0082 26.7133 57.1948 26.9C57.3948 27.0867 57.6348 27.18 57.9148 27.18ZM71.9622 29.12C71.1489 29.12 70.5489 28.9067 70.1622 28.48C69.7889 28.04 69.6022 27.5 69.6022 26.86C69.6022 26.58 69.6355 26.2667 69.7022 25.92C69.7689 25.56 69.8355 25.2133 69.9022 24.88C69.9822 24.5467 70.0355 24.3333 70.0622 24.24C70.1689 23.7733 70.2689 23.3133 70.3622 22.86C70.4555 22.4067 70.5022 22.04 70.5022 21.76C70.5022 21.08 70.2622 20.74 69.7822 20.74C69.4355 20.74 69.1289 20.9133 68.8622 21.26C68.5955 21.5933 68.3822 22.0333 68.2222 22.58L66.8622 29H63.9822L66.1022 19H68.9822L68.7622 20.04C69.4289 19.2933 70.2089 18.92 71.1022 18.92C71.7822 18.92 72.3222 19.1067 72.7222 19.48C73.1222 19.8533 73.3222 20.42 73.3222 21.18C73.3222 21.5667 73.2755 22 73.1822 22.48C73.0889 22.9467 72.9555 23.52 72.7822 24.2C72.6755 24.6133 72.5755 25.02 72.4822 25.42C72.4022 25.8067 72.3622 26.1133 72.3622 26.34C72.3622 26.6067 72.4222 26.8133 72.5422 26.96C72.6622 27.1067 72.8689 27.18 73.1622 27.18C73.5622 27.18 73.8822 27.04 74.1222 26.76C74.3622 26.4667 74.6022 26.02 74.8422 25.42H75.6822C75.1889 26.8867 74.6155 27.8733 73.9622 28.38C73.3222 28.8733 72.6555 29.12 71.9622 29.12ZM82.0598 29.12C81.2465 29.12 80.6465 28.9067 80.2598 28.48C79.8865 28.04 79.6998 27.5 79.6998 26.86C79.6998 26.58 79.7332 26.2667 79.7998 25.92C79.8665 25.56 79.9332 25.2133 79.9998 24.88C80.0798 24.5467 80.1332 24.3333 80.1598 24.24C80.2665 23.7733 80.3665 23.3133 80.4598 22.86C80.5532 22.4067 80.5998 22.04 80.5998 21.76C80.5998 21.08 80.3598 20.74 79.8798 20.74C79.5332 20.74 79.2265 20.9133 78.9598 21.26C78.6932 21.5933 78.4798 22.0333 78.3198 22.58L76.9598 29H74.0798L76.1998 19H79.0798L78.8598 20.04C79.5265 19.2933 80.3065 18.92 81.1998 18.92C81.8798 18.92 82.4198 19.1067 82.8198 19.48C83.2198 19.8533 83.4198 20.42 83.4198 21.18C83.4198 21.5667 83.3732 22 83.2798 22.48C83.1865 22.9467 83.0532 23.52 82.8798 24.2C82.7732 24.6133 82.6732 25.02 82.5798 25.42C82.4998 25.8067 82.4598 26.1133 82.4598 26.34C82.4598 26.6067 82.5198 26.8133 82.6398 26.96C82.7598 27.1067 82.9665 27.18 83.2598 27.18C83.6598 27.18 83.9798 27.04 84.2198 26.76C84.4598 26.4667 84.6998 26.02 84.9398 25.42H85.7798C85.2865 26.8867 84.7132 27.8733 84.0598 28.38C83.4198 28.8733 82.7532 29.12 82.0598 29.12ZM87.3375 29.12C86.5775 29.12 85.9442 28.86 85.4375 28.34C84.9308 27.82 84.6775 27.0067 84.6775 25.9C84.6775 24.9133 84.8708 23.88 85.2575 22.8C85.6575 21.7067 86.2442 20.7867 87.0175 20.04C87.8042 19.28 88.7375 18.9 89.8175 18.9C90.3642 18.9 90.7708 18.9933 91.0375 19.18C91.3042 19.3667 91.4375 19.6133 91.4375 19.92V20.06L91.6575 19H94.5375L93.0975 25.8C93.0442 26 93.0175 26.2133 93.0175 26.44C93.0175 27.0133 93.2908 27.3 93.8375 27.3C94.2108 27.3 94.5308 27.1267 94.7975 26.78C95.0775 26.4333 95.2975 25.98 95.4575 25.42H96.2975C95.8042 26.86 95.1908 27.84 94.4575 28.36C93.7375 28.8667 93.0108 29.12 92.2775 29.12C91.7175 29.12 91.2642 28.9667 90.9175 28.66C90.5842 28.34 90.3842 27.88 90.3175 27.28C89.9308 27.8267 89.4975 28.2733 89.0175 28.62C88.5508 28.9533 87.9908 29.12 87.3375 29.12ZM88.6375 27.18C88.9708 27.18 89.2975 27.0267 89.6175 26.72C89.9508 26.4 90.1775 25.9667 90.2975 25.42L91.2575 20.9C91.2575 20.7267 91.1908 20.56 91.0575 20.4C90.9242 20.2267 90.7175 20.14 90.4375 20.14C89.9042 20.14 89.4242 20.4533 88.9975 21.08C88.5708 21.6933 88.2375 22.44 87.9975 23.32C87.7575 24.1867 87.6375 24.9533 87.6375 25.62C87.6375 26.2867 87.7308 26.7133 87.9175 26.9C88.1175 27.0867 88.3575 27.18 88.6375 27.18ZM102.325 29.12C101.618 29.12 101.105 28.9067 100.785 28.48C100.465 28.0533 100.305 27.5133 100.305 26.86C100.305 26.58 100.338 26.2667 100.405 25.92C100.472 25.56 100.538 25.2133 100.605 24.88C100.685 24.5467 100.738 24.3333 100.765 24.24C100.872 23.7733 100.972 23.3133 101.065 22.86C101.158 22.4067 101.205 22.04 101.205 21.76C101.205 21.08 100.965 20.74 100.485 20.74C100.165 20.74 99.8715 20.8867 99.6048 21.18C99.3515 21.4733 99.1448 21.86 98.9848 22.34L97.5648 29H94.6848L97.5848 15.4L100.545 15L99.4648 20.02C100.132 19.2867 100.912 18.92 101.805 18.92C102.485 18.92 103.025 19.1067 103.425 19.48C103.825 19.8533 104.025 20.42 104.025 21.18C104.025 21.5667 103.978 22 103.885 22.48C103.792 22.9467 103.658 23.52 103.485 24.2C103.378 24.6133 103.278 25.02 103.185 25.42C103.105 25.8067 103.065 26.1133 103.065 26.34C103.065 26.6067 103.125 26.8133 103.245 26.96C103.365 27.1067 103.572 27.18 103.865 27.18C104.185 27.18 104.405 27.14 104.525 27.06C104.445 27.74 104.198 28.2533 103.785 28.6C103.385 28.9467 102.898 29.12 102.325 29.12ZM115.283 15.26C114.27 15.5933 113.483 16.1467 112.923 16.92C112.377 17.68 112.103 18.6267 112.103 19.76C112.103 20.2667 112.15 20.6133 112.243 20.8C112.337 20.9867 112.383 21.1 112.383 21.14C110.957 21.14 110.243 20.5333 110.243 19.32C110.243 18.4933 110.557 17.6667 111.183 16.84C111.823 16 112.637 15.32 113.623 14.8C114.623 14.2667 115.617 14 116.603 14C117.097 14 117.603 14.0933 118.123 14.28L117.663 24.82L122.063 14.28H124.943L122.843 29H119.963L121.243 20.02L117.483 29H114.743L115.143 19.98L111.803 29H110.203L115.283 15.26ZM127.005 29.12C126.245 29.12 125.612 28.86 125.105 28.34C124.599 27.82 124.345 27.0067 124.345 25.9C124.345 24.9133 124.539 23.88 124.925 22.8C125.325 21.7067 125.912 20.7867 126.685 20.04C127.472 19.28 128.405 18.9 129.485 18.9C130.032 18.9 130.439 18.9933 130.705 19.18C130.972 19.3667 131.105 19.6133 131.105 19.92V20.06L131.325 19H134.205L132.765 25.8C132.712 26 132.685 26.2133 132.685 26.44C132.685 27.0133 132.959 27.3 133.505 27.3C133.879 27.3 134.199 27.1267 134.465 26.78C134.745 26.4333 134.965 25.98 135.125 25.42H135.965C135.472 26.86 134.859 27.84 134.125 28.36C133.405 28.8667 132.679 29.12 131.945 29.12C131.385 29.12 130.932 28.9667 130.585 28.66C130.252 28.34 130.052 27.88 129.985 27.28C129.599 27.8267 129.165 28.2733 128.685 28.62C128.219 28.9533 127.659 29.12 127.005 29.12ZM128.305 27.18C128.639 27.18 128.965 27.0267 129.285 26.72C129.619 26.4 129.845 25.9667 129.965 25.42L130.925 20.9C130.925 20.7267 130.859 20.56 130.725 20.4C130.592 20.2267 130.385 20.14 130.105 20.14C129.572 20.14 129.092 20.4533 128.665 21.08C128.239 21.6933 127.905 22.44 127.665 23.32C127.425 24.1867 127.305 24.9533 127.305 25.62C127.305 26.2867 127.399 26.7133 127.585 26.9C127.785 27.0867 128.025 27.18 128.305 27.18ZM138.473 17.92C138.033 17.92 137.659 17.7667 137.353 17.46C137.046 17.1533 136.893 16.78 136.893 16.34C136.893 15.9 137.046 15.5267 137.353 15.22C137.659 14.9 138.033 14.74 138.473 14.74C138.913 14.74 139.286 14.9 139.593 15.22C139.913 15.5267 140.073 15.9 140.073 16.34C140.073 16.78 139.913 17.1533 139.593 17.46C139.286 17.7667 138.913 17.92 138.473 17.92ZM137.113 29.12C136.473 29.12 135.953 28.92 135.553 28.52C135.166 28.12 134.973 27.52 134.973 26.72C134.973 26.3867 135.026 25.9533 135.133 25.42L136.493 19H139.373L137.933 25.8C137.879 26 137.853 26.2133 137.853 26.44C137.853 26.7067 137.913 26.9 138.033 27.02C138.166 27.1267 138.379 27.18 138.673 27.18C139.059 27.18 139.419 27.02 139.753 26.7C140.086 26.3667 140.326 25.94 140.473 25.42H141.313C140.819 26.86 140.186 27.84 139.413 28.36C138.639 28.8667 137.873 29.12 137.113 29.12ZM143.325 29.12C142.338 29.12 141.572 28.8667 141.025 28.36C140.478 27.84 140.205 27.0333 140.205 25.94C140.205 25.02 140.385 24.0067 140.745 22.9C141.105 21.7933 141.692 20.84 142.505 20.04C143.318 19.2267 144.352 18.82 145.605 18.82C147.072 18.82 147.805 19.46 147.805 20.74C147.805 21.4867 147.592 22.1733 147.165 22.8C146.738 23.4267 146.172 23.9333 145.465 24.32C144.758 24.6933 144.005 24.9067 143.205 24.96C143.178 25.36 143.165 25.6267 143.165 25.76C143.165 26.4133 143.278 26.86 143.505 27.1C143.732 27.3267 144.098 27.44 144.605 27.44C145.325 27.44 145.938 27.2733 146.445 26.94C146.965 26.6067 147.532 26.1 148.145 25.42H148.825C147.345 27.8867 145.512 29.12 143.325 29.12ZM143.365 24C143.858 23.9733 144.325 23.8 144.765 23.48C145.218 23.16 145.578 22.7533 145.845 22.26C146.125 21.7667 146.265 21.2467 146.265 20.7C146.265 20.1533 146.098 19.88 145.765 19.88C145.285 19.88 144.812 20.3 144.345 21.14C143.892 21.98 143.565 22.9333 143.365 24ZM149.501 19H152.381L152.121 20.24C152.574 19.84 152.981 19.5333 153.341 19.32C153.714 19.1067 154.114 19 154.541 19C154.967 19 155.301 19.1467 155.541 19.44C155.794 19.7333 155.921 20.0867 155.921 20.5C155.921 20.8867 155.794 21.2267 155.541 21.52C155.287 21.8133 154.934 21.96 154.481 21.96C154.187 21.96 153.987 21.8933 153.881 21.76C153.787 21.6133 153.714 21.4067 153.661 21.14C153.621 20.9667 153.581 20.84 153.541 20.76C153.501 20.68 153.427 20.64 153.321 20.64C153.041 20.64 152.801 20.7 152.601 20.82C152.414 20.9267 152.167 21.12 151.861 21.4L150.261 29H147.381L149.501 19ZM157.94 29.12C157.3 29.12 156.76 29 156.32 28.76C155.88 28.5067 155.553 28.1867 155.34 27.8C155.127 27.4 155.02 26.9867 155.02 26.56C155.02 26.12 155.127 25.74 155.34 25.42C155.54 25.0867 155.787 24.8467 156.08 24.7C156.6 23.7667 157.053 22.8267 157.44 21.88C157.827 20.92 158.193 19.8867 158.54 18.78L161.5 18.38C161.567 20.0867 161.68 21.9333 161.84 23.92C161.907 24.72 161.94 25.3 161.94 25.66C161.94 26.4733 161.733 27.14 161.32 27.66C160.907 28.18 160.393 28.5533 159.78 28.78C159.18 29.0067 158.567 29.12 157.94 29.12ZM157.3 27.54C157.793 27.54 158.207 27.3933 158.54 27.1C158.873 26.8067 159.04 26.3333 159.04 25.68C159.04 25.28 159 24.72 158.92 24C158.787 22.48 158.7 21.46 158.66 20.94C158.34 21.9933 157.8 23.2533 157.04 24.72C157.347 24.88 157.5 25.1133 157.5 25.42C157.5 25.6733 157.413 25.9 157.24 26.1C157.08 26.3 156.873 26.4 156.62 26.4C156.34 26.4 156.16 26.3133 156.08 26.14C156.08 26.62 156.173 26.9733 156.36 27.2C156.56 27.4267 156.873 27.54 157.3 27.54Z" fill="#EBEBE4"/>
</svg>
